<svg width="797" height="457" viewBox="0 0 797 457" fill="none" xmlns="http://www.w3.org/2000/svg">
<path d="M116.876 418.079C116.401 421.697 115.743 424.969 114.884 427.893C114.025 430.816 113.075 433.265 112.052 435.239C110.846 437.56 109.621 439.351 108.36 440.612C107.099 441.873 105.582 442.786 103.792 443.389C102.001 443.993 99.6615 444.376 96.7741 444.577C94.3435 444.76 91.7485 444.87 89.0439 444.925C86.3209 444.979 83.6346 444.943 80.9482 444.833C77.147 444.65 74.351 443.061 72.5601 440.063C70.7692 437.066 70.4219 433.905 71.5367 430.542C72.6515 427.18 75.1003 424.932 78.8831 423.762C83.0863 422.465 86.5037 420.93 89.117 419.139C91.7303 417.348 93.6126 415.319 94.7821 413.053C95.9517 410.787 96.4817 408.284 96.3903 405.524C96.3172 403.496 95.9152 401.705 95.1842 400.151C94.4532 398.598 93.4481 397.41 92.1689 396.588C90.8896 395.766 89.4277 395.382 87.7829 395.437C85.6631 395.51 83.7625 396.149 82.0629 397.337C80.3634 398.525 78.7004 400.426 77.0557 403.057C75.3927 405.67 73.4921 409.325 71.354 414.022C68.229 420.93 64.9212 426.632 61.4125 431.182C57.9038 435.714 53.9747 439.186 49.6253 441.58C45.2759 443.974 40.3966 445.272 34.969 445.455C28.2622 445.692 22.3229 444.248 17.1329 441.123C11.9611 437.998 7.88585 433.448 4.92535 427.454C1.96484 421.46 0.338394 414.424 0.0459986 406.31C-0.100199 401.997 0.100823 397.867 0.667339 393.92C1.23386 389.972 2.03794 386.683 3.11615 384.015C4.10299 381.621 5.27257 379.684 6.6249 378.185C7.97723 376.687 9.5123 375.572 11.2667 374.823C13.021 374.073 15.0495 373.598 17.3704 373.416C18.9969 373.288 21.2995 373.196 24.2966 373.141C27.2936 373.087 30.2907 373.05 33.306 373.068C37.5823 373.068 40.7438 374.603 42.7906 377.637C44.8373 380.671 45.2942 383.96 44.1612 387.469C43.0281 390.978 40.4697 393.353 36.4858 394.596C32.575 395.784 29.4866 397.063 27.2571 398.415C25.0093 399.768 23.4559 401.248 22.5787 402.838C21.7015 404.428 21.2995 406.237 21.3543 408.302C21.4274 410.239 21.8477 411.884 22.6336 413.236C23.4194 414.589 24.4793 415.575 25.7951 416.215C27.1109 416.855 28.5911 417.147 30.2358 417.092C32.2643 417.019 34.1283 416.434 35.8096 415.32C37.4909 414.205 39.1904 412.377 40.9083 409.837C42.6261 407.297 44.4901 403.825 46.5186 399.402C50.0639 391.617 53.6457 385.44 57.2459 380.853C60.846 376.266 64.6289 372.959 68.5762 370.912C72.5235 368.865 76.946 367.75 81.8254 367.586C88.5139 367.348 94.508 368.81 99.7894 371.935C105.071 375.06 109.256 379.647 112.344 385.678C115.433 391.709 117.114 398.836 117.388 407.059C117.516 410.824 117.351 414.515 116.876 418.134V418.079Z" fill="black"/>
<path d="M111.997 361.245C109.201 362.634 106.369 362.835 103.481 361.884C100.594 360.916 98.5835 358.741 97.4139 355.36C96.7926 353.222 96.0251 351.45 95.1296 350.042C94.2341 348.635 93.1011 347.484 91.7305 346.625C90.3599 345.748 88.6421 345.108 86.5588 344.67L80.2905 343.372C77.8783 342.879 75.5026 342.751 73.1634 342.988C70.8242 343.244 67.8089 343.939 64.1174 345.09C59.1284 346.625 53.9384 348.306 48.5473 350.116C43.1563 351.943 38.4232 353.606 34.3479 355.141C31.497 356.183 29.3772 357.06 27.9883 357.773C26.5994 358.485 25.375 359.381 24.3151 360.422C23.2551 361.464 21.9211 363.054 20.3677 365.192C18.3027 367.952 15.598 369.432 12.272 369.615C8.94603 369.797 6.18655 368.646 3.97531 366.161C1.76407 363.675 1.03308 360.24 1.76407 355.872C2.60471 350.956 3.50017 346.168 4.46873 341.526C5.43729 336.866 6.64342 331.494 8.1054 325.372C8.81811 322.301 10.2801 320.072 12.5096 318.683C14.7391 317.294 17.1697 316.837 19.8195 317.294C22.4693 317.751 24.7354 318.975 26.5994 320.986C27.7873 322.448 28.8838 323.526 29.8889 324.202C30.894 324.896 31.9356 325.28 33.0321 325.39C34.1286 325.481 35.4444 325.317 36.9795 324.896C40.0313 324.019 43.138 322.959 46.3178 321.753C47.3595 321.333 48.1088 320.766 48.5656 320.035C49.0225 319.304 49.1504 318.5 48.9677 317.623C48.7666 316.764 48.2732 315.923 47.4509 315.119C45.9889 313.749 44.6 312.488 43.3025 311.355C43.0101 311.081 42.0233 310.24 40.3237 308.815C39.209 307.864 38.1673 307.225 37.1987 306.932C36.2302 306.622 35.0972 306.622 33.8545 306.896C32.5935 307.188 30.9853 307.828 29.03 308.815C26.4532 309.966 23.9313 310.185 21.4277 309.473C18.924 308.76 16.9686 307.316 15.5432 305.105C14.1178 302.894 13.6426 300.262 14.1178 297.21C14.6843 293.318 15.397 289.352 16.2559 285.332C17.0966 281.311 18.0468 277.327 19.0702 273.417C20.0936 269.506 22.1221 266.819 25.1192 265.394C28.1345 263.968 31.1133 264.005 34.0372 265.504C36.9612 267.002 38.8617 269.67 39.6841 273.544C40.141 275.664 40.6892 277.437 41.3654 278.862C42.0415 280.288 42.9553 281.658 44.1249 282.992C45.2944 284.326 47.0123 286.008 49.2783 288.036C52.2206 290.704 55.1811 293.372 58.1416 296.077C60.3345 298.069 62.6189 300.134 64.9763 302.254C67.3338 304.374 69.4536 306.256 71.2994 307.864C71.5918 308.12 71.8111 308.303 71.9573 308.413C72.1035 308.541 72.3228 308.723 72.6152 308.961C74.333 310.386 75.8863 311.556 77.2935 312.433C78.7006 313.328 80.0895 314.041 81.4418 314.571C82.7942 315.101 84.2744 315.54 85.8826 315.869L92.3336 317.203C94.5631 317.66 96.4637 317.806 97.9987 317.605C99.5521 317.422 100.941 316.874 102.184 315.978C103.426 315.083 104.724 313.731 106.076 311.94C108.397 308.961 111.12 307.535 114.227 307.663C117.333 307.791 119.947 309.107 122.03 311.647C124.113 314.187 124.936 317.13 124.461 320.492C124.168 322.484 123.857 324.494 123.51 326.541C123.181 328.588 122.834 330.58 122.45 332.499C121.756 336.135 121.007 339.827 120.148 343.555C119.307 347.283 118.375 351.066 117.37 354.903C116.621 357.754 114.83 359.874 112.034 361.245H111.997Z" fill="black"/>
<path d="M120.239 305.287C117.205 305.891 114.482 305.287 112.089 303.496C109.695 301.706 108.379 299.165 108.159 295.912C108.05 293.683 107.684 291.801 107.1 290.302C106.496 288.785 105.455 287.342 103.956 285.953C102.458 284.564 100.246 283.029 97.3591 281.329L97.0301 281.147C91.6208 278.022 85.8643 274.75 79.7605 271.333C73.6568 267.916 67.3154 264.425 60.7548 260.898C57.6664 259.217 55.2176 258.139 53.4084 257.645C51.5992 257.152 49.8083 257.079 48.0356 257.426C46.263 257.773 43.668 258.614 40.2689 259.911C37.6739 260.862 35.1154 260.715 32.63 259.454C30.1447 258.193 28.4634 256.147 27.6045 253.332C26.7456 250.518 27.1842 247.411 28.9385 244.049C30.364 241.308 31.8625 238.512 33.4158 235.679C34.9692 232.828 36.7601 229.63 38.7703 226.067C42.1694 220.054 44.8375 215.394 46.7747 212.086C53.2074 200.92 60.8645 191.984 69.7094 185.259C78.5544 178.534 88.1486 174.715 98.4556 173.783C108.763 172.851 119.124 175.299 129.559 181.129C139.683 186.776 147.048 194.049 151.69 202.967C156.332 211.885 158.214 221.681 157.318 232.353C156.423 243.025 153.006 253.881 147.011 264.864C146.244 266.289 145.659 267.349 145.294 268.044C144.928 268.738 144.362 269.78 143.612 271.169C138.879 279.94 135.517 286.117 133.506 289.717C131.515 293.317 129.596 296.607 127.732 299.604C125.74 302.784 123.236 304.684 120.202 305.287H120.239ZM134.475 234.729C134.311 229.795 132.574 224.988 129.248 220.328C125.922 215.668 120.915 211.392 114.19 207.536C107.337 203.607 101.069 201.505 95.3854 201.213C89.702 200.939 84.6216 202.236 80.1626 205.124C75.6853 208.011 71.7014 212.287 68.1926 217.971C66.3652 220.913 65.2869 223.38 64.9215 225.39C64.556 227.401 64.8484 229.118 65.8169 230.544C66.7672 231.969 68.3937 233.322 70.6414 234.619C75.338 237.324 81.1677 240.577 88.1486 244.414C95.1113 248.234 102.129 252.071 109.165 255.927C109.585 256.147 110.243 256.494 111.12 256.987C114.373 258.76 117.114 259.692 119.362 259.82C121.591 259.948 123.62 259.199 125.447 257.572C127.275 255.964 129.102 253.296 130.985 249.568C133.506 244.615 134.694 239.681 134.53 234.747L134.475 234.729Z" fill="black"/>
<path d="M184.2 199.879C181.149 199.312 178.846 197.759 177.256 195.182C175.666 192.624 175.374 189.773 176.379 186.666C177.128 184.473 177.512 182.573 177.53 180.983C177.53 179.393 177.11 177.675 176.233 175.884C175.355 174.075 173.893 171.845 171.81 169.159C163.934 159.016 154.796 147.741 144.398 135.296C142.552 133.085 140.908 131.495 139.482 130.508C138.057 129.539 136.449 128.863 134.639 128.534C132.83 128.205 130.217 128.004 126.763 127.949C124.022 127.876 121.719 126.762 119.819 124.642C117.936 122.504 117.114 119.982 117.351 117.039C117.589 114.115 119.179 111.447 122.085 109.053C124.661 106.97 127.914 104.302 131.88 101.049C134.383 99.0206 136.229 97.522 137.435 96.5352C138.642 95.5484 140.451 94.0681 142.881 92.0944C144.416 90.8335 145.915 89.5908 147.377 88.4212C148.839 87.2334 150.283 86.0821 151.671 84.9308C153.005 83.816 154.358 82.7195 155.692 81.623C156.13 81.2575 156.587 80.9103 157.026 80.5448C159.237 78.7539 161.485 76.9447 163.788 75.0807C166.09 73.2167 168.484 71.2978 170.988 69.2876C173.802 67.0398 176.379 65.5778 178.681 64.9017C180.984 64.2255 183.177 64.2255 185.279 64.9017C187.38 65.5778 189.591 66.8753 191.967 68.8307C193.849 70.4023 195.914 72.3029 198.181 74.5324C200.447 76.7802 202.676 79.1559 204.869 81.6596C207.793 84.9673 208.816 88.4212 207.994 91.9848C207.153 95.5666 205.07 98.0337 201.744 99.4226C198.418 100.811 195.001 100.318 191.492 97.9606C188.203 95.7128 185.37 94.2143 183.013 93.465C180.655 92.7158 178.517 92.5879 176.616 93.0813C174.716 93.5747 172.724 94.6346 170.641 96.2611C170.202 96.6266 169.745 96.9738 169.306 97.3393C168.466 98.0154 167.57 98.7282 166.638 99.4774C165.688 100.227 164.793 100.958 163.952 101.67C161.503 103.735 160.388 105.855 160.589 108.03C160.79 110.205 161.832 112.471 163.714 114.828C164.025 115.194 164.317 115.577 164.628 115.943C165.834 117.46 166.986 118.885 168.082 120.183C169.179 121.48 170.22 122.668 171.207 123.746C171.719 124.276 172.34 124.715 173.089 125.099C173.839 125.464 174.606 125.647 175.429 125.629C176.251 125.629 176.982 125.336 177.658 124.788L179.412 123.362C180.6 122.394 181.441 121.498 181.934 120.64C182.428 119.799 182.647 118.776 182.629 117.588C182.592 116.4 182.3 114.828 181.752 112.836C180.71 108.925 181.185 105.673 183.177 103.114C185.169 100.537 187.874 99.2399 191.254 99.2216C194.635 99.2033 197.614 100.629 200.191 103.48C203.681 107.39 206.258 110.369 207.958 112.416C209.639 114.463 212.033 117.46 215.158 121.407C215.286 121.572 215.377 121.681 215.45 121.773C215.523 121.846 215.578 121.937 215.651 122.01C215.724 122.083 215.816 122.211 215.944 122.376C218.447 125.61 219.397 128.881 218.776 132.189C218.155 135.497 216.309 137.854 213.239 139.243C210.169 140.65 206.587 140.449 202.475 138.64C200.849 137.909 199.478 137.452 198.382 137.27C197.285 137.087 196.28 137.196 195.348 137.544C194.416 137.909 193.374 138.549 192.223 139.481L190.469 140.906C189.354 141.82 188.842 142.916 188.934 144.196C189.025 145.475 189.847 147.083 191.382 149.02C191.675 149.367 192.15 149.952 192.808 150.775C193.466 151.597 194.178 152.456 194.946 153.37C196.92 155.69 198.564 157.317 199.898 158.267C201.232 159.217 202.566 159.711 203.882 159.729C205.198 159.766 206.934 159.437 209.091 158.761C212.362 157.756 215.286 158.267 217.862 160.314C220.439 162.342 221.81 165.047 222.011 168.428C222.194 171.809 220.859 174.769 217.99 177.328C214.281 180.599 210.352 183.907 206.185 187.251C202.018 190.613 197.724 193.958 193.265 197.339C190.286 199.568 187.271 200.409 184.219 199.842L184.2 199.879Z" fill="black"/>
<path d="M262.05 138.988C252.127 137.544 243.264 133.615 235.461 127.219C227.657 120.822 221.7 112.526 217.57 102.347C213.421 92.0946 211.959 81.8791 213.202 71.7C214.445 61.521 218.227 52.3654 224.532 44.2697C230.837 36.174 239.225 29.9789 249.696 25.7391C259.766 21.6456 269.744 20.3115 279.612 21.7187C289.481 23.1258 298.289 26.9818 306.056 33.2683C313.822 39.5548 319.743 47.7236 323.8 57.7382C328.04 68.173 329.575 78.5348 328.406 88.8052C327.236 99.0756 323.526 108.286 317.258 116.418C310.99 124.551 302.638 130.746 292.203 134.985C282.024 139.115 271.973 140.45 262.05 139.006V138.988ZM296.79 105.6C299.239 101.47 300.445 96.5719 300.427 90.9251C300.427 85.2782 299.13 79.1927 296.608 72.7052C293.684 65.1942 290.029 59.0357 285.625 54.2477C281.22 49.4597 276.432 46.353 271.242 44.9093C266.052 43.4656 260.826 43.9042 255.599 46.1703C250.903 48.217 247.339 51.3055 244.872 55.399C242.405 59.5108 241.162 64.3536 241.144 69.9091C241.126 75.4829 242.35 81.4039 244.799 87.7087C247.759 95.3841 251.469 101.671 255.928 106.55C260.387 111.429 265.212 114.609 270.438 116.071C275.665 117.533 280.891 117.113 286.136 114.847C290.815 112.8 294.36 109.711 296.809 105.581L296.79 105.6Z" fill="black"/>
<path d="M330.653 112.069C328.552 109.766 327.583 107.098 327.784 104.065C327.985 101.031 329.392 98.6005 332.005 96.7548C333.851 95.5486 335.24 94.2877 336.172 93.0084C337.104 91.7292 337.725 90.1028 338.036 88.1291C338.347 86.1554 338.438 83.469 338.292 80.0517C338 73.1986 337.634 66.0898 337.214 58.7068C336.775 51.3238 336.263 43.9043 335.697 36.4299C335.496 33.8166 335.076 31.6968 334.473 30.0703C333.869 28.4439 332.919 26.9271 331.622 25.4833C330.324 24.0579 328.332 22.3035 325.664 20.2568C323.416 18.4476 322.192 16.1815 321.936 13.422C321.699 10.6808 322.503 8.21374 324.385 6.03905C326.249 3.86435 328.899 2.6034 332.334 2.25618C334.546 2.03688 336.848 1.81759 339.242 1.63484C341.636 1.45209 344.085 1.28762 346.534 1.12315C351.852 0.794202 357.681 0.501806 364.059 0.24596C373.635 -0.156084 381.987 0.90385 389.132 3.44404C396.278 5.98422 401.833 9.65744 405.799 14.4637C409.764 19.2699 411.939 24.7524 412.323 30.9292C412.506 33.8714 412.268 36.8137 411.61 39.7742C410.952 42.7347 409.838 45.6586 408.266 48.546C406.676 51.4334 404.611 54.2295 402.052 56.8976C400.7 58.3961 399.805 59.7667 399.348 60.9729C398.891 62.1973 398.854 63.4217 399.22 64.6643C399.585 65.907 400.389 67.3142 401.632 68.9041C403.843 71.7915 405.653 74.0941 407.06 75.7937C408.467 77.5115 409.911 79.211 411.409 80.8923C411.884 81.4223 412.341 81.934 412.78 82.4639C414.114 83.9807 415.265 85.1686 416.252 85.9909C417.239 86.8316 418.189 87.4529 419.158 87.8915C420.108 88.3301 421.241 88.6773 422.575 88.9697C426.888 89.9566 429.775 92.113 431.219 95.439C432.663 98.765 432.498 101.945 430.707 105.015C428.935 108.085 426.029 109.73 421.99 109.986L410.916 110.68C408.065 110.863 405.598 110.698 403.533 110.205C401.468 109.712 399.604 108.871 397.959 107.665C396.314 106.459 394.669 104.814 393.025 102.712C391.398 100.592 388.876 97.1933 385.422 92.4967C383.814 90.3221 382.17 88.0925 380.433 85.7716C378.716 83.4508 377.034 81.2578 375.426 79.1745L374.823 78.4252C373.745 77.0546 372.886 75.9947 372.21 75.2637C371.534 74.5327 370.894 73.9662 370.273 73.5641C369.651 73.1621 369.03 72.9976 368.427 73.0342H368.281C367.714 73.1073 367.239 73.3083 366.874 73.6555C366.508 74.0027 366.234 74.6058 366.07 75.4282C365.905 76.2505 365.85 77.3653 365.923 78.7542C365.942 79.1562 365.978 79.5948 365.996 80.0151C365.996 80.4902 366.015 80.9837 366.051 81.5136C366.088 82.0253 366.124 82.5553 366.179 83.1035C366.362 85.2051 366.709 86.8316 367.239 88.0012C367.769 89.1707 368.628 90.1393 369.798 90.9068C370.967 91.6744 372.703 92.4785 375.024 93.3008C378.204 94.507 380.196 96.6634 380.982 99.8066C381.768 102.932 381.256 105.91 379.447 108.688C377.619 111.484 374.878 113.038 371.223 113.385C365.649 113.915 360.276 114.335 355.086 114.664C349.915 114.993 344.56 115.23 339.059 115.377C335.569 115.45 332.755 114.335 330.635 112.032L330.653 112.069ZM377.838 45.951C379.721 44.4525 381 42.6799 381.676 40.6331C382.352 38.5863 382.608 36.4116 382.48 34.0725C382.316 31.4957 381.64 29.2297 380.47 27.256C379.282 25.3006 377.656 23.7655 375.609 22.669C373.562 21.5726 371.205 21.006 368.555 20.9878C367.221 20.9512 366.124 21.1522 365.284 21.5908C364.425 22.0294 363.785 22.7421 363.365 23.729C362.945 24.7341 362.78 26.0681 362.853 27.7311C363.146 32.5008 363.438 37.2705 363.749 42.022C363.858 43.9225 364.206 45.4028 364.754 46.4993C365.302 47.5775 366.015 48.3267 366.91 48.6922C367.806 49.076 368.866 49.1491 370.108 48.9115C373.379 48.4364 375.956 47.4496 377.838 45.951Z" fill="black"/>
<path d="M471.151 122.211C467.898 120.567 465.029 118.867 462.561 117.076C460.094 115.303 458.084 113.586 456.567 111.959C454.776 110.059 453.479 108.304 452.73 106.696C451.962 105.088 451.597 103.352 451.615 101.47C451.633 99.5872 452.053 97.2481 452.821 94.452C453.461 92.0946 454.21 89.6275 455.069 87.0325C455.928 84.4557 456.86 81.9156 457.847 79.4302C459.29 75.9032 461.721 73.8016 465.138 73.0889C468.556 72.3944 471.662 73.1254 474.458 75.2818C477.254 77.4565 478.57 80.5084 478.406 84.4557C478.223 88.86 478.552 92.588 479.374 95.6399C480.197 98.6918 481.476 101.159 483.23 103.005C484.966 104.85 487.159 106.203 489.809 107.025C491.746 107.628 493.574 107.847 495.273 107.683C496.973 107.518 498.435 106.952 499.641 106.02C500.847 105.088 501.688 103.827 502.181 102.255C502.821 100.227 502.857 98.2166 502.291 96.2429C501.724 94.251 500.482 92.058 498.563 89.6092C496.644 87.1787 493.83 84.1634 490.12 80.5815C484.656 75.3549 480.361 70.3294 477.236 65.5049C474.129 60.6803 472.156 55.8375 471.352 50.9399C470.529 46.0423 470.95 41.0167 472.576 35.8267C474.586 29.4123 477.912 24.2954 482.591 20.4394C487.251 16.6017 492.897 14.2626 499.531 13.4585C506.165 12.6544 513.347 13.4585 521.095 15.889C525.225 17.1865 529.045 18.7399 532.572 20.5856C536.099 22.4314 538.95 24.2954 541.106 26.1777C543.025 27.9138 544.469 29.6499 545.437 31.4225C546.406 33.1952 546.954 35.0226 547.082 36.9049C547.21 38.7872 546.972 40.8706 546.388 43.1366C545.967 44.7082 545.291 46.9195 544.359 49.7521C543.427 52.6029 542.44 55.4355 541.435 58.2864C540.01 62.3251 537.524 64.7922 533.979 65.7242C530.434 66.6562 527.199 65.9983 524.257 63.7505C521.315 61.521 519.926 58.3046 520.09 54.138C520.273 50.0445 520.09 46.7185 519.56 44.16C519.03 41.6015 518.153 39.6461 516.947 38.2755C515.741 36.9232 514.169 35.9364 512.196 35.315C510.35 34.7302 508.65 34.6023 507.115 34.8947C505.58 35.1871 504.301 35.8633 503.259 36.8867C502.218 37.91 501.45 39.2076 500.957 40.7792C500.354 42.7163 500.28 44.6717 500.774 46.6271C501.267 48.5825 502.419 50.7937 504.246 53.2608C506.074 55.7279 508.742 58.6336 512.232 62.0144C518.391 67.9537 523.051 73.363 526.176 78.2789C529.301 83.1948 531.183 87.8549 531.804 92.2591C532.426 96.6633 532.005 101.214 530.543 105.874C528.551 112.27 525.189 117.423 520.474 121.389C515.759 125.336 510.057 127.767 503.351 128.662C496.644 129.558 489.352 128.79 481.512 126.323C477.912 125.19 474.495 123.801 471.224 122.175L471.151 122.211Z" fill="black"/>
<path d="M537.98 140.303C533.74 131.221 532.132 121.663 533.192 111.63C534.252 101.597 537.907 92.0579 544.139 82.9937C550.407 73.8929 558.137 67.0581 567.329 62.4894C576.521 57.9208 586.244 56.0567 596.477 56.8608C606.73 57.6832 616.488 61.2833 625.79 67.6795C634.745 73.8563 641.342 81.4403 645.6 90.4498C649.858 99.4592 651.484 108.944 650.497 118.903C649.511 128.845 645.965 138.275 639.825 147.174C633.429 156.458 625.626 163.421 616.397 168.099C607.168 172.777 597.428 174.733 587.194 173.965C576.942 173.216 567.183 169.634 557.918 163.238C548.872 157.006 542.22 149.349 537.98 140.267V140.303ZM584.964 150.957C589.752 150.72 594.522 149.039 599.237 145.932C603.952 142.807 608.319 138.403 612.358 132.719C617.018 126.14 620.143 119.708 621.733 113.403C623.323 107.098 623.268 101.378 621.623 96.2611C619.96 91.1442 616.744 87.0141 611.956 83.8891C607.662 81.0931 603.129 79.7956 598.341 79.9966C593.553 80.1976 588.839 81.8241 584.179 84.8577C579.519 87.9096 575.224 92.1858 571.313 97.7048C566.525 104.393 563.327 110.954 561.682 117.35C560.038 123.746 560.056 129.539 561.719 134.711C563.382 139.883 566.598 144.013 571.386 147.156C575.663 149.934 580.195 151.213 584.983 150.976L584.964 150.957Z" fill="black"/>
<path d="M630.212 232.006C626.649 227.565 622.976 222.923 619.174 218.062C615.666 213.566 612.194 209.071 608.758 204.594C605.322 200.116 602.088 195.858 599.036 191.838C597.025 189.206 596.331 186.392 596.916 183.413C597.519 180.434 599.054 178.114 601.558 176.469C604.061 174.824 606.839 174.495 609.927 175.464C612.047 176.195 614.003 176.56 615.757 176.524C617.511 176.505 619.339 176.048 621.221 175.19C623.104 174.331 625.296 172.942 627.818 171.041C632.606 167.441 637.851 163.402 643.535 158.889C649.218 154.375 654.591 150.062 659.635 145.913L660.146 145.511C663.18 143.026 665.245 141.126 666.342 139.81C667.438 138.512 668.169 136.995 668.534 135.296C668.9 133.596 669.192 130.709 669.393 126.634C669.558 123.618 670.746 121.224 672.92 119.47C675.095 117.716 677.635 117.003 680.523 117.332C683.41 117.661 685.932 119.141 688.088 121.736C689.605 123.545 691.524 125.866 693.827 128.717C696.129 131.568 698.395 134.419 700.625 137.251C701.721 138.677 702.818 140.084 703.878 141.454C704.938 142.825 705.961 144.159 706.948 145.457C708.885 148.033 709.671 150.793 709.305 153.699C708.94 156.604 707.697 158.943 705.541 160.679C703.403 162.416 700.899 163.019 698.085 162.47C694.393 161.721 691.579 161.337 689.642 161.356C687.705 161.356 685.877 161.794 684.178 162.653C682.46 163.512 680.121 165.102 677.142 167.405C675.844 168.428 673.67 170.127 670.6 172.503C666.287 175.866 661.846 179.338 657.259 182.956C652.672 186.575 648.962 189.554 646.13 191.893C642.895 194.543 640.666 196.991 639.459 199.203C638.253 201.432 637.906 203.625 638.399 205.818C638.911 207.993 640.227 210.442 642.365 213.146C644.668 216.07 646.842 218.135 648.871 219.36C650.899 220.584 653.074 221.132 655.413 221.023C657.752 220.913 660.64 220.218 664.075 218.939C668.041 217.477 671.513 217.806 674.437 219.908C677.379 222.009 678.841 224.879 678.86 228.497C678.86 232.115 677.105 235.185 673.542 237.671C671.203 239.279 668.681 240.96 665.939 242.715C663.198 244.469 660.603 246.004 658.118 247.356C655.614 248.727 653.33 249.531 651.247 249.75C649.163 249.988 647.244 249.659 645.49 248.8C643.736 247.941 642.054 246.552 640.446 244.652C637.157 240.686 633.739 236.501 630.176 232.061L630.212 232.006Z" fill="black"/>
<path d="M674.878 326.084C674.348 324.695 673.836 323.306 673.324 321.936C672.813 320.547 672.301 319.158 671.808 317.769C668.281 308.211 665.229 299.805 662.652 292.586C662.323 291.654 661.976 290.722 661.647 289.79C659.527 283.76 657.663 278.46 656.091 273.91C654.52 269.359 653.295 265.649 652.418 262.817C651.322 259.308 651.541 256.201 653.058 253.533C654.574 250.865 656.804 249.202 659.746 248.544C662.688 247.905 665.448 248.544 668.043 250.5C669.834 251.907 671.479 252.894 672.977 253.424C674.476 253.954 676.23 254.118 678.259 253.88C680.287 253.661 682.937 253.003 686.226 251.925C698.598 247.704 712.213 242.788 727.07 237.159C729.757 236.136 731.803 235.112 733.192 234.089C734.581 233.066 735.733 231.75 736.646 230.16C737.56 228.57 738.602 226.158 739.79 222.905C740.758 220.346 742.549 218.537 745.126 217.459C747.721 216.399 750.352 216.454 753.039 217.623C755.725 218.811 757.735 221.132 759.051 224.623C760.586 228.607 762.103 232.59 763.601 236.574C765.1 240.558 766.58 244.506 768.042 248.416C768.993 251.011 770.4 254.831 772.209 259.875C772.958 261.94 773.506 263.456 773.854 264.462C774.219 265.448 774.749 266.947 775.462 268.939L777.271 274.074C777.746 275.445 778.441 277.437 779.391 280.05L780.378 282.901C781.73 286.83 782.406 290.138 782.443 292.824C782.479 295.51 781.858 297.813 780.615 299.732C779.373 301.651 777.399 303.423 774.694 305.05C771.715 306.841 767.951 308.796 763.382 310.879C761.006 311.921 759.307 312.67 758.247 313.091C754.19 314.754 750.608 314.589 747.501 312.615C744.413 310.642 742.75 307.827 742.512 304.191C742.275 300.554 743.865 297.447 747.264 294.871C750.937 292.111 753.477 289.662 754.903 287.524C756.328 285.386 757.023 283.449 756.968 281.749C756.913 280.032 756.474 277.985 755.634 275.573C755.14 274.22 754.793 273.215 754.574 272.576C754.354 271.936 754.007 270.949 753.532 269.633C753.295 268.994 753.057 268.354 752.801 267.714C751.778 264.955 750.352 262.981 748.543 261.793C746.716 260.624 744.486 260.496 741.836 261.428C738.145 262.725 735.056 263.858 732.516 264.791C731.072 265.302 729.921 265.924 729.062 266.655C728.185 267.386 727.619 268.153 727.326 268.994C727.052 269.816 727.052 270.657 727.363 271.497L728.185 273.782C728.66 275.116 729.227 276.176 729.866 276.943C730.506 277.711 731.383 278.314 732.48 278.734C733.576 279.154 735.056 279.429 736.902 279.556C741.215 279.94 744.322 281.548 746.186 284.344C748.068 287.159 748.397 290.192 747.172 293.464C745.966 296.735 743.408 299.147 739.497 300.737C736.043 302.071 733.265 303.131 731.146 303.88C729.026 304.629 726.486 305.507 723.507 306.512C722.52 306.841 721.771 307.096 721.259 307.261C720.766 307.425 720.272 307.59 719.76 307.754C719.267 307.919 718.518 308.175 717.513 308.504C713.474 309.838 709.965 309.691 707.005 308.047C704.026 306.402 702.381 303.935 702.052 300.591C701.723 297.265 703.057 293.975 706.073 290.722C707.407 289.352 708.339 288.146 708.887 287.14C709.435 286.135 709.691 285.149 709.673 284.18C709.654 283.211 709.399 282.06 708.905 280.708L708.083 278.423C707.79 277.601 707.297 276.961 706.621 276.486C705.945 276.011 705.122 275.737 704.154 275.664C703.185 275.591 702.162 275.737 701.047 276.103C700.81 276.194 700.627 276.23 700.517 276.249C698.818 276.797 697.484 277.236 696.533 277.619C695.565 277.985 694.285 278.533 692.677 279.264C690.137 280.379 688.255 281.567 686.994 282.864C685.751 284.162 685.02 285.752 684.819 287.67C684.618 289.589 684.965 292.038 685.824 295.035C686.117 296.095 686.519 297.374 687.067 298.891C688.346 302.436 689.79 305.141 691.416 306.969C693.043 308.814 695.071 310.13 697.538 310.898C699.987 311.683 703.295 312.159 707.443 312.341C711.244 312.579 714.095 314.096 716.014 316.91C717.933 319.724 718.408 322.74 717.421 325.938C716.453 329.136 714.077 331.365 710.294 332.626C707.224 333.668 704.117 334.563 700.956 335.331C697.794 336.098 694.742 336.72 691.745 337.158C691.654 337.158 691.581 337.177 691.526 337.195C691.471 337.195 691.398 337.195 691.307 337.231C688.218 337.634 685.696 337.579 683.723 337.049C681.749 336.519 680.123 335.514 678.825 334.015C677.528 332.517 676.394 330.433 675.389 327.729C675.188 327.199 675.006 326.65 674.805 326.084H674.878Z" fill="black"/>
<path d="M686.39 341.307C688.674 339.279 691.269 338.292 694.138 338.365C697.007 338.438 699.328 339.663 701.083 342.057C702.782 344.505 704.281 346.296 705.542 347.429C706.802 348.562 708.356 349.367 710.183 349.86C712.011 350.353 714.606 350.609 718.005 350.664C721.861 350.737 728.677 350.828 738.473 350.902C743.06 350.938 747.519 350.956 751.813 350.956C756.126 350.956 759.379 350.938 761.572 350.902C764.478 350.847 766.725 350.591 768.352 350.134C769.96 349.677 771.367 348.964 772.573 347.978C773.779 346.991 775.369 345.401 777.325 343.153C777.434 343.043 777.526 342.952 777.562 342.879C777.599 342.806 777.69 342.715 777.8 342.605C779.956 340.266 782.46 339.041 785.292 338.968C788.143 338.895 790.61 339.864 792.712 341.892C794.814 343.902 795.928 346.57 796.056 349.896C796.184 352.967 796.202 355.763 796.129 358.321C796.111 359.673 796.056 360.989 795.983 362.268C795.91 363.548 795.819 364.809 795.691 366.033C795.526 368.043 795.27 369.725 794.923 371.059C794.576 372.393 794.046 373.581 793.333 374.64C792.621 375.682 791.634 376.687 790.336 377.656C785.439 381.42 780.541 385.167 775.643 388.931C767.127 395.437 760.804 400.298 756.674 403.496C752.562 406.694 748.615 409.819 744.85 412.871C742.511 414.753 741.104 416.49 740.629 418.043C740.154 419.596 740.574 420.802 741.872 421.661C743.169 422.52 745.198 422.941 747.975 422.904C749.73 422.904 751.484 422.904 753.257 422.904C755.249 422.904 756.729 422.904 757.698 422.904C758.666 422.904 760.128 422.904 762.065 422.904C765.117 422.867 767.383 422.666 768.845 422.301C770.307 421.935 771.55 421.259 772.573 420.254C773.597 419.249 774.912 417.495 776.521 414.991C778.257 412.378 780.632 410.916 783.629 410.642C786.626 410.368 789.313 411.263 791.689 413.328C794.064 415.393 795.344 418.262 795.526 421.935C795.654 425.28 795.746 427.948 795.782 429.976C795.819 432.005 795.819 434.088 795.782 436.263C795.746 438.565 795.636 441.873 795.453 446.168C795.307 449.549 794.028 452.253 791.652 454.263C789.276 456.274 786.59 457.187 783.629 456.968C780.669 456.749 778.366 455.378 776.74 452.838C775.351 450.59 774.035 448.927 772.793 447.831C771.55 446.734 769.923 445.967 767.913 445.528C765.903 445.071 763.034 444.834 759.269 444.797C758.648 444.797 758.191 444.797 757.88 444.779C757.57 444.779 757.113 444.761 756.528 444.761C754.098 444.761 751.685 444.742 749.255 444.706C741.488 444.633 735.494 444.596 731.291 444.578C725.388 444.578 719.339 444.578 713.089 444.578C706.857 444.614 700.68 444.651 694.577 444.724C690.355 444.779 687.048 443.426 684.654 440.649C682.26 437.871 681.254 434.636 681.657 430.945C682.04 427.253 683.849 424.22 687.048 421.844C691.817 418.317 696.605 414.717 701.448 411.044C706.273 407.37 711.207 403.588 716.214 399.695C721.24 395.803 726.356 391.782 731.601 387.634C734.215 385.569 736.81 383.485 739.405 381.42C741.287 379.922 742.402 378.478 742.749 377.126C743.096 375.773 742.712 374.677 741.579 373.855C740.446 373.032 738.728 372.612 736.426 372.612C734.233 372.612 732.022 372.594 729.81 372.557C727.727 372.557 725.699 372.557 723.707 372.557C721.715 372.557 719.796 372.557 717.95 372.557C714.569 372.594 712.011 372.813 710.293 373.233C708.557 373.654 707.095 374.421 705.907 375.536C704.701 376.651 703.166 378.515 701.32 381.11C699.529 383.522 697.172 384.801 694.23 384.947C691.287 385.094 688.674 384.107 686.353 382.023C684.032 379.94 682.79 377.089 682.588 373.471C682.442 369.98 682.351 367.294 682.296 365.412C682.241 363.529 682.241 361.665 682.296 359.783C682.314 358.321 682.369 356.731 682.424 354.995C682.479 353.277 682.57 351.358 682.698 349.257C682.899 345.967 684.142 343.299 686.426 341.271L686.39 341.307Z" fill="black"/>
</svg>
